<?xml version="1.0" standalone="no"?>
<!DOCTYPE svg PUBLIC "-//W3C//DTD SVG 1.0//EN" "http://www.w3.org/TR/2001/REC-SVG-20010904/DTD/svg10.dtd">
<svg xmlns="http://www.w3.org/2000/svg" xmlns:xlink="http://www.w3.org/1999/xlink" id="body_1" width="800" height="800">

<g transform="matrix(1.3333334 0 0 1.3333334 0 0)">
	<path  d="M0 0L600 0L600 600L0 600z" stroke="none"  fill="#FFFFFF" fill-rule="evenodd" />
	<g transform="matrix(0.75 0 0 0.75 0 0)">
		<g transform="matrix(1.5625 0 0 1.5625 0 0)">
			<path  d="M256 21C 126.235596 21 21 126.1923 21 256C 21 385.8077 126.2356 491 256 491C 385.7644 491 491 385.8077 491 256C 491 126.19229 385.7644 21 256 21zM270.8344 42.15L279.50012 87.5343L297.41882 51.9906L300.06262 91.7937L325.47202 53.4593L322.0939 99.2843L348.8251 69.3218L341.0407 108.8312L375.40942 78.281204L360.575 121.90311L394.2094 99.72491L376.2907 135.8562L417.56262 115.4406L391.56573 153.4812L429.75323 140.7031L403.16895 170.9594L448.40643 162.2937L413.45023 192.2562L453.40012 189.90619L420.35333 212.08429L466.03143 215.02179L424.90643 234.9968L464.12204 243.2218L426.08133 255.99991L469.55634 270.9812L424.46573 279.4999L460.15634 297.4186L420.35324 300.0624L458.54074 325.4718L412.71573 322.2405L442.53134 348.9718L403.16885 341.0405L433.57196 375.7031L390.09695 360.7218L412.12814 393.9156L376.29065 376.2906L396.70624 417.26868L358.66553 391.71237L371.14993 429.75308L341.04053 403.31558L349.85303 448.25928L319.89053 413.59677L322.09363 453.54678L300.06232 420.49988L297.12482 466.03107L277.1498 425.05298L268.9248 464.12177L255.9998 426.08118L241.1655 469.40927L232.7936 424.31866L214.728 460.30307L212.0842 420.49997L186.6749 458.54056L189.7592 412.71555L163.32181 442.67795L171.10611 403.31546L136.4436 433.57175L151.5717 390.09674L117.9373 412.42175L135.85611 376.29056L94.58421 396.55936L120.43421 358.81247L82.393616 371.44366L108.831116 341.04056L63.740417 349.99997L98.69672 320.03748L58.452915 322.24057L91.79352 300.06238L45.821716 296.97797L87.24042 277.00296L48.02482 268.92487L85.91852 255.99986L42.29662 241.31236L87.53412 232.49986L51.843517 214.72797L91.79342 212.08417L53.459118 186.67487L99.28412 189.90616L69.32162 163.32176L108.83102 170.95926L78.42792 136.44366L121.90282 151.57176L99.87161 118.08426L135.85602 135.85616L115.58722 94.73106L153.48093 120.43426L140.84962 82.54056L171.10593 108.83116L162.14653 63.740463L192.10902 98.549866L189.75902 58.306168L212.08401 91.79367L215.02151 45.82177L234.99652 87.24047L243.07462 48.02487L255.99962 85.771774L270.834 42.149876zM256 102.5156C 171.2106 102.5156 102.5157 171.1822 102.5157 255.99991C 102.5157 340.81763 171.2107 409.63123 256 409.63123C 340.7893 409.63123 409.6313 340.81763 409.6313 255.99992C 409.6313 171.18222 340.7895 102.515625 255.99998 102.515625zM265.6938 116.3218L271.422 145.9906L283.0251 122.6375L284.7876 148.78119L301.3845 123.66559L299.1814 153.62808L316.6595 134.09369L311.5189 159.9437L334.1376 139.96869L324.297 168.46239L346.3283 153.92178L334.5783 177.56868L361.6033 164.20308L344.7127 189.02498L369.5346 180.65318L352.2034 200.48128L381.7252 194.75317L358.9596 214.28757L384.9564 212.81877L363.36578 227.35947L393.1814 229.26877L366.30328 242.34067L392.00638 247.62817L367.18448 255.99997L395.53128 265.84058L366.0095 271.42188L389.36258 283.02496L363.3657 284.78748L388.33438 301.38437L358.3719 299.32806L377.90628 316.65927L352.2032 311.66556L372.03128 334.28427L343.68448 324.44366L358.0782 346.18115L334.5782 334.72485L347.9438 361.45615L323.1219 344.71243L331.19998 369.53433L311.51877 352.34995L317.39368 381.57803L297.85928 358.95932L299.18118 385.10303L284.78748 363.51242L282.87808 393.32803L269.80618 366.44992L264.51868 392.00613L255.99988 367.18423L246.30608 395.38425L240.87178 366.00934L229.12178 389.50934L227.35928 363.51245L210.76239 388.33435L212.81859 358.37186L195.4874 378.05316L200.6281 352.35007L177.8624 372.03137L187.703 343.68448L165.8186 358.22507L177.5686 334.72507L150.54361 347.94388L167.4342 323.12198L142.6123 331.49387L159.94351 311.66577L130.42162 317.39386L153.18721 297.85956L126.89661 299.32825L148.78091 284.78766L118.67152 282.73135L145.69652 269.80637L120.14032 264.37207L144.96222 256.00018L116.32162 246.45328L145.99042 240.72517L122.637314 229.12198L148.781 227.35948L123.665405 210.76257L153.6279 212.81877L134.0935 195.48758L159.94351 200.48138L139.9685 177.86258L168.4622 187.70319L154.06851 165.96568L177.56851 177.56879L164.34972 150.69069L189.02472 167.43439L180.79971 142.61249L200.6278 159.9437L194.7528 130.4218L214.2872 153.1874L212.8184 126.89679L227.3591 148.7811L229.2684 118.6718L242.3403 145.6968L247.6278 120.140495L255.9996 144.81549L265.6934 116.32179zM255.99998 167.4343C 207.11168 167.4343 167.58128 207.09529 167.58128 255.9999C 167.58128 304.90448 207.11179 344.5655 255.99998 344.5655C 304.88818 344.5655 344.56558 304.90448 344.56558 255.9999C 344.56558 207.0953 304.88828 167.4343 255.99998 167.4343zM261.5813 175.51239L264.9594 192.5499L271.56882 179.1843L272.59692 194.16559L282.14383 179.77188L280.96884 196.95628L290.95633 185.64688L288.01892 200.62817L301.09073 189.02498L295.50952 205.47498L308.1408 197.10318L301.3846 210.76257L316.9533 203.12508L307.1127 217.37198L321.5064 212.52509L311.519 223.98138L328.55652 220.75009L315.3377 231.9126L330.46582 231.0314L317.9814 239.55011L335.1658 240.57831L319.59702 248.06891L334.43143 251.1533L320.18454 256.0001L336.48764 261.5814L319.45013 264.9595L332.96265 271.5689L317.98135 272.59702L332.37515 282.2908L315.04395 280.969L326.35333 290.95648L311.51904 288.01898L322.97525 301.09088L306.52524 295.50958L314.89713 307.994L301.3846 301.38458L309.02213 316.8064L294.77524 307.1126L299.32834 321.5064L288.01895 311.51892L291.39706 328.40952L280.08768 315.33762L280.96887 330.46573L272.59708 317.9814L271.56897 335.1658L264.07828 319.7439L260.994 334.4314L256.00018 320.0377L250.41888 336.4877L247.33458 319.4502L240.43138 332.9627L239.55019 317.9815L229.85638 332.3752L231.03139 315.044L221.04388 326.3534L224.12828 311.5191L211.05638 322.9753L216.63759 306.5253L204.0064 314.8972L210.76259 301.38467L195.19379 309.0222L205.0344 294.7753L190.64069 299.4753L200.62819 288.0191L183.59068 291.39722L196.80948 280.08783L181.53448 280.96912L194.16579 272.59723L176.8346 271.42224L192.40329 263.93164L177.71579 260.84723L191.96269 256.00034L175.5127 250.41913L192.5502 247.18784L179.0377 240.43164L194.16591 239.55034L179.77222 229.85654L196.95662 231.03154L185.64722 221.04404L200.62851 223.98154L189.17221 211.05653L205.47531 216.63783L197.2503 204.15343L210.7628 210.76283L203.1252 195.34093L217.3721 205.03473L212.6721 190.64102L224.1284 200.62852L220.7503 183.59102L231.91281 196.66292L231.03162 181.53471L239.55032 194.16602L240.57852 176.83481L248.06912 192.4035L251.15352 177.716L256.0003 191.9629L261.5816 175.51291zM256 213.2593C 232.3608 213.2593 213.25931 232.3528 213.25931 255.9999C 213.25931 279.64697 232.36081 298.8874 256 298.8874C 279.6392 298.8874 298.8875 279.647 298.8875 255.9999C 298.8875 232.35278 279.6391 213.2593 256 213.2593zM258.7906 217.07799L260.25928 225.303L263.6374 218.8405L264.0777 226.1842L268.6309 219.1342L268.04358 227.5061L272.89038 222.0717L271.56857 229.2686L277.8842 223.6874L275.0936 231.61859L281.2624 227.50609L277.88428 234.1155L285.5218 230.44359L280.82178 237.3467L287.72488 234.99669L282.878 240.57799L291.103 238.96228L284.78738 244.39668L291.98428 243.95639L285.96237 248.0689L294.33426 248.50919L286.84357 252.18109L293.89355 253.64989L286.99045 255.9999L294.92175 258.7905L286.69675 260.2593L293.30615 263.63742L285.96246 264.07773L293.01245 268.63083L284.64066 268.04352L290.07495 272.89032L282.87805 271.5685L288.31244 277.88412L280.52805 275.09354L284.49374 281.11545L277.88434 277.88416L281.70303 285.37476L274.79993 280.82166L277.00302 287.72476L271.56873 282.87787L273.18433 291.10287L267.75003 284.78726L268.04404 291.98416L264.07834 285.96225L263.49094 294.33414L259.96594 286.84344L258.35034 293.89343L256.00034 286.99033L253.35654 294.92163L251.88783 286.69662L248.50974 293.30603L248.06943 285.96234L243.36943 292.86545L243.95683 284.64044L239.10994 290.07474L240.57874 282.87784L234.26314 288.45914L237.05374 280.52783L230.88504 284.49353L234.11633 277.88412L226.62564 281.70282L231.32574 274.7997L224.42264 277.0028L229.26944 271.5685L221.04443 273.1841L227.36003 267.74982L220.01624 268.04382L226.18503 264.07822L217.81323 263.4908L225.30383 259.8189L218.10693 258.35022L225.01004 256.0002L217.07884 253.3565L225.30385 251.7408L218.84135 248.5095L226.18506 248.06921L219.13506 243.36922L227.50696 243.95662L222.07256 239.10973L229.26945 240.57852L223.68825 234.26292L231.61945 237.05353L227.65384 230.88474L234.11633 234.11603L230.44443 226.62543L237.34753 231.32542L235.14444 224.42232L240.57884 229.26912L238.96313 221.04411L244.39754 227.35971L243.95724 220.016L248.06975 226.18471L248.65704 217.81291L252.18204 225.30351L253.65074 218.10661L256.00073 225.00972L258.79132 217.07852z" stroke="none"  fill="#000000" fill-rule="nonzero" />
		</g>
	</g>
</g>
</svg>
